<?xml version="1.0" encoding="utf-8"?>
<!-- Generator: Adobe Illustrator 23.0.0, SVG Export Plug-In . SVG Version: 6.00 Build 0)  -->
<svg version="1.1" id="Capa_1" xmlns="http://www.w3.org/2000/svg" xmlns:xlink="http://www.w3.org/1999/xlink" x="0px" y="0px"
	 viewBox="0 0 300 300" style="enable-background:new 0 0 300 300;" xml:space="preserve">
<style type="text/css">
	.st0{fill:#454D66;stroke:#454D66;}
	.st1{fill:#444C65;}
	.st2{fill:none;}
</style>
<g id="Grupo_1784" transform="translate(-727.27 -1644.482)">
	<path id="Trazado_3879" class="st0" d="M877.27,1919.48c-69.04,0-125-55.96-125-125c0-69.04,55.96-125,125-125
		c69.04,0,125,55.96,125,125C1002.17,1863.48,946.27,1919.38,877.27,1919.48z M877.27,1684.34c-60.82,0-110.13,49.31-110.13,110.13
		c0,60.82,49.31,110.13,110.13,110.13s110.13-49.31,110.13-110.13l0,0c-0.08-60.79-49.34-110.05-110.13-110.12V1684.34z"/>
	<g id="Grupo_1470" transform="translate(732.584 1648.833)">
		<path id="Trazado_3880" class="st1" d="M133.76,65.7h21.74l57.76,147.8h-21.74l-16.14-44.46h-62.52L96.29,213.5H76L133.76,65.7z
			 M119.07,152.43h50.09L144.53,83.5h-0.41L119.07,152.43z"/>
	</g>
</g>
<rect x="25" y="25" class="st2" width="250" height="250"/>
</svg>
