<?xml version="1.0" encoding="utf-8"?>
<!-- Generator: Adobe Illustrator 23.0.0, SVG Export Plug-In . SVG Version: 6.00 Build 0)  -->
<svg version="1.1" id="Capa_1" xmlns="http://www.w3.org/2000/svg" xmlns:xlink="http://www.w3.org/1999/xlink" x="0px" y="0px"
	 viewBox="0 0 300 300" style="enable-background:new 0 0 300 300;" xml:space="preserve">
<style type="text/css">
	.st0{fill:#444C65;}
</style>
<g>
	<path class="st0" d="M80.28,235.46c-8.35,0-15.17,6.82-15.17,15.17c0,8.4,6.82,15.17,15.17,15.17c8.4,0,15.23-6.77,15.23-15.17
		C95.51,242.28,88.68,235.46,80.28,235.46z"/>
	<path class="st0" d="M171.4,235.46c-8.4,0-15.23,6.82-15.23,15.17c0,8.4,6.83,15.17,15.23,15.17c8.35,0,15.17-6.77,15.17-15.17
		C186.57,242.28,179.75,235.46,171.4,235.46z"/>
	<path class="st0" d="M182.82,207.38c-2.51-0.65-4.98-1.41-7.4-2.26H73.71L72.03,195h82.83c-8.47-5.54-16-12.39-22.3-20.26h-26.99
		v-20.2h14.6c-1.48-3.28-2.78-6.66-3.89-10.13h-10.71v-20.26h6.6c-0.26-2.87-0.4-5.78-0.4-8.72c0-3.89,0.24-7.72,0.69-11.48H56.81
		l-1.92-11.81c-0.85-4.89-5.05-8.45-9.98-8.45H22.13C16.54,83.67,12,88.21,12,93.81c0,5.58,4.54,10.13,10.13,10.13h14.18
		l18.82,112.94c0.1,0.44,0.3,0.85,0.44,1.24c0.2,0.54,0.3,1.04,0.54,1.53c0.35,0.7,0.8,1.24,1.24,1.83
		c0.29,0.39,0.59,0.78,0.94,1.13c0.59,0.54,1.29,0.95,1.97,1.34c0.4,0.19,0.7,0.49,1.14,0.64c1.19,0.44,2.43,0.73,3.71,0.73h111.32
		c5.58,0,10.13-4.49,10.13-10.13C186.57,212.04,185.1,209.23,182.82,207.38z M63.63,144.69l-3.42-20.55h35.29v20.26H65.11
		C64.57,144.4,64.13,144.55,63.63,144.69z M65.26,154.53h30.24v20.2H68.63L65.26,154.53z"/>
	<path class="st0" d="M206.79,34.21c-44.78,0-81.21,36.43-81.21,81.21c0,44.78,36.43,81.21,81.21,81.21
		c44.78,0,81.21-36.43,81.21-81.21C288,70.64,251.57,34.21,206.79,34.21z M206.79,175.3c-33.02,0-59.88-26.86-59.88-59.88
		c0-33.02,26.86-59.88,59.88-59.88c33.02,0,59.88,26.86,59.88,59.88C266.67,148.44,239.81,175.3,206.79,175.3z"/>
	<path class="st0" d="M252.78,93.82h-18.53c-3.36,0-6.08,2.72-6.08,6.08s2.72,6.08,6.08,6.08h4.42l-16.04,16.04l-14.51-14.51
		c-2.37-2.37-6.22-2.37-8.6,0l-17.61,17.6l-7.5-7.5c-2.37-2.37-6.22-2.37-8.6,0l-9.05,9.05c-2.37,2.37-2.37,6.22,0,8.6
		c2.37,2.37,6.22,2.37,8.6,0l4.75-4.75l7.5,7.5c1.19,1.19,2.74,1.78,4.3,1.78c1.56,0,3.11-0.59,4.3-1.78l17.61-17.6l14.51,14.51
		c2.37,2.37,6.22,2.37,8.6,0l19.77-19.77v3.28c0,3.36,2.72,6.08,6.08,6.08s6.08-2.72,6.08-6.08V99.9
		C258.86,96.54,256.14,93.82,252.78,93.82z"/>
</g>
</svg>
