<?xml version="1.0" encoding="utf-8"?>
<!-- Generator: Adobe Illustrator 23.0.0, SVG Export Plug-In . SVG Version: 6.00 Build 0)  -->
<svg version="1.1" id="Capa_1" xmlns="http://www.w3.org/2000/svg" xmlns:xlink="http://www.w3.org/1999/xlink" x="0px" y="0px"
	 viewBox="0 0 300 300" style="enable-background:new 0 0 300 300;" xml:space="preserve">
<style type="text/css">
	.st0{fill:#5C666F;}
	.st1{fill:none;}
</style>
<path class="st0" d="M269.84,234.21h-11.31V69.99c0-7.64-6.22-13.86-13.86-13.86h-25.28c-7.64,0-13.86,6.22-13.86,13.86v164.23
	h-28.72V144.4c0-7.64-6.22-13.86-13.86-13.86h-25.28c-7.64,0-13.86,6.22-13.86,13.86v89.82H95.08V187.7
	c0-7.64-6.22-13.86-13.86-13.86H55.94c-7.64,0-13.86,6.22-13.86,13.86v46.52H30.16c-2.85,0-5.16,2.31-5.16,5.16s2.31,5.16,5.16,5.16
	h239.69c2.85,0,5.16-2.31,5.16-5.16S272.69,234.21,269.84,234.21z M52.39,234.21V187.7c0-1.96,1.59-3.55,3.55-3.55h25.28
	c1.96,0,3.55,1.59,3.55,3.55v46.52H52.39z M134.12,234.21V144.4c0-1.96,1.59-3.55,3.55-3.55h25.28c1.96,0,3.55,1.59,3.55,3.55v89.82
	H134.12z M215.84,234.21V69.99c0-1.96,1.59-3.55,3.55-3.55h25.28c1.96,0,3.55,1.59,3.55,3.55v164.23H215.84z"/>
<rect x="25" y="25" class="st1" width="250" height="250"/>
</svg>
