<?xml version="1.0" encoding="utf-8"?>
<!-- Generator: Adobe Illustrator 23.0.0, SVG Export Plug-In . SVG Version: 6.00 Build 0)  -->
<svg version="1.1" id="Capa_1" xmlns="http://www.w3.org/2000/svg" xmlns:xlink="http://www.w3.org/1999/xlink" x="0px" y="0px"
	 viewBox="0 0 300 300" style="enable-background:new 0 0 300 300;" xml:space="preserve">
<style type="text/css">
	.st0{fill:#454D66;}
</style>
<g>
	<path class="st0" d="M150,25C81.07,25,25,81.07,25,150s56.07,125,125,125s125-56.07,125-125S218.93,25,150,25z M150,249.64
		c-54.94,0-99.64-44.7-99.64-99.64S95.06,50.36,150,50.36s99.64,44.7,99.64,99.64S204.94,249.64,150,249.64z"/>
	<path class="st0" d="M150,219.02c-16.57,0-30.06-13.48-30.06-30.06c0-16.57,13.48-30.06,30.06-30.06
		c16.58,0,30.06,13.48,30.06,30.06C180.06,205.54,166.58,219.02,150,219.02z M150,175.61c-7.37,0-13.36,5.99-13.36,13.36
		c0,7.37,5.99,13.36,13.36,13.36c7.37,0,13.36-5.99,13.36-13.36C163.36,181.6,157.37,175.61,150,175.61z"/>
	<path class="st0" d="M150,175.61c-4.61,0-8.35-3.74-8.35-8.35v-54.27c0-4.61,3.74-8.35,8.35-8.35c4.61,0,8.35,3.74,8.35,8.35v54.27
		C158.35,171.87,154.61,175.61,150,175.61z"/>
	<path class="st0" d="M150,71.51c-4.61,0-8.35-3.74-8.35-8.35V41.45c0-4.61,3.74-8.35,8.35-8.35c4.61,0,8.35,3.74,8.35,8.35v21.71
		C158.35,67.77,154.61,71.51,150,71.51z"/>
	<path class="st0" d="M258.55,158.35h-21.71c-4.61,0-8.35-3.74-8.35-8.35s3.74-8.35,8.35-8.35h21.71c4.61,0,8.35,3.74,8.35,8.35
		S263.16,158.35,258.55,158.35z"/>
	<path class="st0" d="M63.16,158.35H41.45c-4.61,0-8.35-3.74-8.35-8.35s3.74-8.35,8.35-8.35h21.71c4.61,0,8.35,3.74,8.35,8.35
		S67.78,158.35,63.16,158.35z"/>
	<path class="st0" d="M211.51,96.84c-2.14,0-4.27-0.82-5.9-2.45c-3.26-3.26-3.26-8.55,0-11.81l15.31-15.31
		c3.26-3.26,8.54-3.26,11.81,0c3.26,3.26,3.26,8.55,0,11.81l-15.31,15.31C215.78,96.02,213.65,96.84,211.51,96.84z"/>
	<path class="st0" d="M88.49,96.84c-2.14,0-4.28-0.82-5.9-2.45L67.28,79.09c-3.26-3.26-3.26-8.55,0-11.81
		c3.26-3.26,8.55-3.26,11.81,0l15.31,15.31c3.26,3.26,3.26,8.55,0,11.81C92.77,96.02,90.63,96.84,88.49,96.84z"/>
	<rect x="172.27" y="183.4" class="st0" width="79.32" height="16.7"/>
	<rect x="49.53" y="183.4" class="st0" width="78.77" height="16.7"/>
</g>
</svg>
