<?xml version="1.0" encoding="utf-8"?>
<!-- Generator: Adobe Illustrator 23.0.0, SVG Export Plug-In . SVG Version: 6.00 Build 0)  -->
<svg version="1.1" id="Capa_1" xmlns="http://www.w3.org/2000/svg" xmlns:xlink="http://www.w3.org/1999/xlink" x="0px" y="0px"
	 viewBox="0 0 300 300" style="enable-background:new 0 0 300 300;" xml:space="preserve">
<style type="text/css">
	.st0{fill:#5C666F;stroke:#5C666F;stroke-width:0.05;}
	.st1{fill:#5C666F;}
	.st2{fill:none;}
</style>
<g>
	<g id="Grupo_562" transform="translate(8.533 8.912)">
		<path id="Trazado_2058" class="st0" d="M191.96,121.62c-39.89,0-72.23,32.34-72.23,72.23c0,39.89,32.34,72.23,72.23,72.23
			c39.89,0,72.23-32.34,72.23-72.23S231.85,121.62,191.96,121.62L191.96,121.62z M250.55,193.85c0,32.36-26.23,58.59-58.59,58.59
			c-32.36,0-58.59-26.23-58.59-58.59c0-32.36,26.23-58.59,58.59-58.59l0,0c32.34,0.01,58.58,26.19,58.65,58.53L250.55,193.85z"/>
		<path id="Trazado_2059" class="st0" d="M191.96,213.99c-5.14,0-9.31,4.17-9.31,9.31c0,5.14,4.17,9.31,9.31,9.31
			c5.14,0,9.31-4.17,9.31-9.31C201.26,218.15,197.1,213.99,191.96,213.99z"/>
		<path id="Rectángulo_68" class="st0" d="M191.96,155.03L191.96,155.03c5.14,0,9.31,4.17,9.31,9.31V198
			c0,5.14-4.17,9.31-9.31,9.31l0,0c-5.14,0-9.31-4.17-9.31-9.31v-33.67C182.65,159.19,186.82,155.03,191.96,155.03z"/>
	</g>
	<path id="Trazado_2060" class="st1" d="M128.95,249.73H57.32c-8.7-0.01-15.76-7.06-15.77-15.76v-22.68h74.77
		c-0.29-2.85-0.43-5.71-0.43-8.57c0-1.92,0.08-3.81,0.21-5.7H41.5v-38.45h86.75c4.11-6.7,9.13-12.8,14.91-18.12v-34.6h87.4v17.76
		c4.95,1.89,9.7,4.25,14.21,7.03V52.78c-0.01-15.3-12.38-27.71-27.67-27.78H55.05c-15.34,0.01-27.77,12.44-27.78,27.78v181.35
		c0.01,16.49,13.38,29.86,29.88,29.88h85.06c-4.53-4.31-8.56-9.09-12.04-14.28C130.15,249.7,128.95,249.73,128.95,249.73z
		 M41.54,105.85h87.4v38.45h-87.4V105.85z"/>
</g>
<rect x="25" y="25" class="st2" width="250" height="250"/>
</svg>
