<?xml version="1.0" encoding="utf-8"?>
<!-- Generator: Adobe Illustrator 23.0.0, SVG Export Plug-In . SVG Version: 6.00 Build 0)  -->
<svg version="1.1" id="Capa_1" xmlns="http://www.w3.org/2000/svg" xmlns:xlink="http://www.w3.org/1999/xlink" x="0px" y="0px"
	 viewBox="0 0 300 300" style="enable-background:new 0 0 300 300;" xml:space="preserve">
<style type="text/css">
	.st0{fill:#1E2B4B;}
	.st1{fill:none;}
</style>
<path id="Trazado_138" class="st0" d="M222.48,108.25h-12.1V84.42c-0.51-33.36-27.96-59.99-61.32-59.48
	c-32.64,0.5-58.99,26.84-59.48,59.48v23.83H77.52c-13.23-0.05-24.02,10.59-24.16,23.82v119.17c0.13,13.23,10.92,23.88,24.16,23.83
	h144.96c13.23,0.05,24.03-10.6,24.16-23.83V132.07C246.5,118.84,235.71,108.2,222.48,108.25z M150,215.52
	c-13.16-0.18-23.69-10.99-23.51-24.15c0.18-13.16,10.99-23.69,24.15-23.51c13.04,0.18,23.51,10.79,23.51,23.83
	C174.03,204.92,163.23,215.56,150,215.52z M187.45,108.29h-74.89V84.46c0-20.68,16.77-37.45,37.45-37.44
	c20.68,0,37.44,16.76,37.44,37.44L187.45,108.29z"/>
<rect x="25" y="25" class="st1" width="250" height="250"/>
</svg>
