<?xml version="1.0" encoding="utf-8"?>
<!-- Generator: Adobe Illustrator 23.0.0, SVG Export Plug-In . SVG Version: 6.00 Build 0)  -->
<svg version="1.1" id="Capa_1" xmlns="http://www.w3.org/2000/svg" xmlns:xlink="http://www.w3.org/1999/xlink" x="0px" y="0px"
	 viewBox="0 0 300 300" style="enable-background:new 0 0 300 300;" xml:space="preserve">
<style type="text/css">
	.st0{fill:#454D66;}
	.st1{fill:none;}
</style>
<g>
	<path class="st0" d="M263.12,156.82L263.12,156.82c-7.69-7.5-18.11-11.31-30.98-11.31c-3.88,0-7.84,0.67-11.78,1.98
		c-3.74,1.24-7.28,2.96-10.54,5.09c-2.44,1.6-4.67,3.18-6.63,4.71c-1.9-1.48-4.12-3.06-6.62-4.71c-3.25-2.13-6.8-3.85-10.54-5.09
		c-3.94-1.31-7.91-1.98-11.78-1.98c-12.87,0-23.29,3.8-30.98,11.3c-7.75,7.56-11.68,17.88-11.68,30.66c0,4.1,0.71,8.32,2.11,12.57
		c1.33,4,2.83,7.36,4.58,10.29c1.61,2.68,3.44,5.31,5.43,7.8c1.98,2.48,3.4,4.15,4.45,5.23c0.93,0.95,1.69,1.69,2.38,2.27
		l42.9,41.39c2.6,2.57,6.05,3.98,9.73,3.98c3.67,0,7.12-1.4,9.72-3.96l43.1-41.51l0.13-0.13c12.38-12.38,18.66-25.14,18.66-37.92
		C274.79,174.7,270.86,164.38,263.12,156.82z M242.67,211.81l-39.48,38.03l-39.62-38.22l-0.63-0.56c-0.01-0.01-0.3-0.26-1.06-1.04
		c-0.27-0.28-1.13-1.21-3.23-3.84c-1.47-1.84-2.81-3.75-3.98-5.7c-1.01-1.68-1.96-3.86-2.82-6.45c-0.76-2.29-1.14-4.5-1.14-6.55
		c0-7.54,1.93-13.1,5.91-16.98c4.05-3.95,9.81-5.87,17.63-5.87c1.81,0,3.74,0.34,5.74,1c2.17,0.72,4.22,1.71,6.06,2.92
		c2.32,1.53,4.31,2.95,5.9,4.23c1.55,1.24,3.06,2.59,4.47,4l6.75,6.75l6.76-6.74c1.44-1.43,2.95-2.79,4.47-4
		c1.66-1.32,3.65-2.75,5.9-4.23c1.87-1.23,3.91-2.21,6.08-2.93c1.99-0.66,3.92-1,5.74-1c7.81,0,13.58,1.92,17.63,5.87
		c3.98,3.89,5.91,9.44,5.91,16.98C255.67,194.98,251.3,203.17,242.67,211.81z"/>
	<g>
		<path class="st0" d="M198.36,71.02c-16.52,0-29.95,13.44-29.95,29.95c0,16.51,13.44,29.95,29.95,29.95
			c16.52,0,29.95-13.44,29.95-29.95C228.32,84.46,214.88,71.02,198.36,71.02z M217.26,100.98c0,10.42-8.48,18.9-18.9,18.9
			c-10.42,0-18.9-8.48-18.9-18.9s8.48-18.9,18.9-18.9C208.78,82.08,217.26,90.56,217.26,100.98z"/>
		<path class="st0" d="M160.57,253.69c-0.1,0.86-0.64,1.59-1.44,1.91l-12.24,5.13c-0.58,0.24-1.22,0.23-1.81-0.01
			c-0.57-0.24-1.01-0.69-1.25-1.28l-4.69-11.26c-1.04-2.45-3.64-3.83-6.17-3.29c-8.83,1.77-17.81,1.77-26.7,0
			c-2.61-0.49-5.2,0.9-6.16,3.3l-4.68,11.26c-0.49,1.18-1.89,1.77-3.05,1.29l-12.25-5.08c-0.6-0.25-1.04-0.69-1.29-1.29
			c-0.25-0.6-0.25-1.21,0-1.81l4.68-11.25c1.03-2.43,0.18-5.26-2.02-6.72c-7.52-5.01-13.87-11.37-18.89-18.89
			c-1.47-2.2-4.3-3.05-6.72-2.02l-11.24,4.68c-0.59,0.24-1.24,0.24-1.81,0c-0.57-0.24-1.01-0.69-1.25-1.29l-5.08-12.25
			c-0.24-0.58-0.23-1.22,0.01-1.8c0.24-0.57,0.69-1.02,1.28-1.25l11.26-4.68c2.45-1.04,3.83-3.64,3.29-6.17
			c-1.77-8.83-1.76-17.81,0-26.7c0.5-2.61-0.9-5.2-3.3-6.16l-11.26-4.68c-0.6-0.25-1.04-0.69-1.29-1.29c-0.25-0.6-0.25-1.21,0-1.81
			l5.08-12.25c0.25-0.6,0.69-1.04,1.29-1.29c0.6-0.25,1.21-0.25,1.81,0l11.25,4.68c2.43,1.03,5.26,0.18,6.73-2.02
			c5.01-7.52,11.37-13.87,18.89-18.89c2.2-1.47,3.05-4.3,2.02-6.72l-4.68-11.25c-0.25-0.6-0.25-1.21,0-1.81
			c0.24-0.6,0.69-1.04,1.29-1.29l12.25-5.08c0.58-0.24,1.22-0.23,1.8,0.01c0.57,0.24,1.02,0.69,1.25,1.28l4.68,11.25
			c0.56,1.36,1.62,2.42,2.99,2.99c1.36,0.57,2.86,0.57,4.22,0c1.36-0.56,2.42-1.62,2.99-2.98c0.57-1.36,0.57-2.86,0.01-4.22
			l-4.68-11.26c-2.84-6.8-10.69-10.06-17.52-7.27l-12.25,5.08c-3.29,1.35-5.88,3.93-7.28,7.28c-1.35,3.29-1.35,6.94,0,10.29
			l2.98,7.18c-5.87,4.43-11.11,9.66-15.58,15.58l-7.19-2.98c-3.29-1.35-6.94-1.35-10.28,0c-3.29,1.35-5.88,3.93-7.28,7.28
			l-5.08,12.25c-1.35,3.29-1.35,6.94,0,10.29c1.35,3.29,3.93,5.87,7.28,7.28l7.18,2.98c-1.05,7.31-1.05,14.72,0,22.03l-7.18,2.98
			c-6.8,2.84-10.07,10.69-7.27,17.52l5.08,12.09c2.79,6.82,10.65,10.09,17.52,7.28l7.18-2.98c4.43,5.87,9.66,11.11,15.58,15.58
			l-2.98,7.19c-1.35,3.29-1.35,6.94,0,10.28c1.35,3.29,3.93,5.88,7.28,7.28l12.25,5.08c3.31,1.36,6.96,1.35,10.27-0.02
			c3.32-1.37,5.89-3.95,7.24-7.26l2.98-7.18c7.31,1.05,14.72,1.05,22.03,0l2.98,7.18c2.1,5.04,6.97,8.3,12.4,8.3
			c1.77,0,3.5-0.35,5.12-1.02l12.25-5.08c2.41-1.01,4.47-2.68,5.94-4.84l0.48-0.71l-9.02-8.7L160.57,253.69z"/>
		<path class="st0" d="M78.56,177.82c0.1,10.94,4.42,21.17,12.16,28.8c7.68,7.57,17.85,11.75,28.65,11.75h0.31
			c2.03-0.02,4.07-0.19,6.05-0.49l1.64-0.25l-0.97-1.35c-1.43-1.99-2.73-3.96-3.86-5.85h0c-0.48-0.79-0.96-1.66-1.44-2.58
			l-0.29-0.56l-0.89,0.02c-0.12,0-0.24,0.01-0.35,0.01h-0.25c-7.9,0-15.32-3.04-20.9-8.57c-5.66-5.57-8.81-13.02-8.86-20.99
			c-0.05-7.96,3-15.47,8.56-21.13c5.72-5.67,13.21-8.82,21.09-8.87c3.03,0,5.5-2.49,5.5-5.55c0-3.03-2.49-5.5-5.61-5.5
			c-10.94,0.1-21.17,4.42-28.8,12.15C82.62,156.64,78.45,166.92,78.56,177.82z"/>
		<path class="st0" d="M260.06,84.92h-4.45c-1.31-4.64-3.12-9-5.38-13l3.18-3.18c4.39-4.39,4.39-11.54,0-15.93l-6.82-6.82
			c-2.12-2.12-4.94-3.28-7.94-3.28c-3.06,0-5.88,1.17-7.94,3.28l-3.18,3.18c-4.19-2.35-8.56-4.16-13-5.39v-4.5
			c0-6.22-5.06-11.28-11.28-11.28h-9.66c-6.22,0-11.28,5.06-11.28,11.28v4.5c-4.64,1.32-9.01,3.12-13,5.38l-3.18-3.18
			c-2.12-2.12-4.94-3.28-7.94-3.28c-3.05,0-5.88,1.17-7.94,3.28l-6.82,6.82c-4.39,4.39-4.39,11.54,0,15.93l3.18,3.18
			c-2.36,4.2-4.17,8.57-5.39,13h-4.5c-6.22,0-11.28,5.06-11.28,11.28v9.66c0,6.22,5.06,11.28,11.28,11.28h4.5
			c1.31,4.64,3.12,9.01,5.38,13l-5.22,5.22l4.27-1.53c3.84-1.37,8.01-2.34,12.4-2.88l1.14-0.14l-0.28-1.12
			c-0.16-0.63-0.42-1.23-0.78-1.75c-3.5-5.23-5.93-11.09-7.22-17.4c-0.49-2.59-2.78-4.46-5.43-4.46h-8.86
			c-0.08,0-0.17-0.09-0.17-0.18V96.2c0-0.09,0.09-0.18,0.17-0.18h8.86c2.6,0,4.88-1.87,5.43-4.46c1.21-6.21,3.64-12.07,7.22-17.41
			c1.46-2.19,1.17-5.12-0.67-6.96l-6.28-6.28c-0.01-0.01-0.05-0.05-0.05-0.12c0-0.07,0-0.08,0.05-0.13l6.77-6.87
			c0.01-0.02,0.05-0.05,0.12-0.05c0.07,0,0.07,0,0.13,0.05l6.28,6.27c1.87,1.88,4.8,2.16,6.96,0.68c5.24-3.51,11.1-5.94,17.4-7.22
			c2.59-0.49,4.46-2.78,4.46-5.43v-8.81c0-0.08,0.09-0.18,0.17-0.18h9.66c0.08,0,0.18,0.09,0.18,0.18v8.86
			c0,2.6,1.87,4.88,4.46,5.43c6.21,1.21,12.07,3.64,17.41,7.22c2.19,1.46,5.12,1.17,6.96-0.67l6.27-6.28
			c0.01-0.02,0.05-0.05,0.13-0.05c0.07,0,0.08,0,0.12,0.05l6.82,6.82c0.1,0.1,0.1,0.2,0,0.3l-6.28,6.27
			c-1.87,1.87-2.16,4.81-0.67,6.97c3.5,5.23,5.93,11.09,7.22,17.4c0.49,2.59,2.78,4.46,5.43,4.46h8.86c0.08,0,0.17,0.09,0.17,0.18
			v9.66c0,0.08-0.09,0.18-0.17,0.18h-8.84c-0.04,0-0.09,0-0.13,0c-2.59,0-4.8,1.84-5.28,4.41c-1.21,6.21-3.64,12.07-7.22,17.41
			c-0.23,0.34-0.41,0.71-0.58,1.17l-0.51,1.39l1.71-0.02c0.08,0,0.17-0.01,0.25-0.01c3.21,0,6.4,0.21,9.47,0.61l0.68,0.09l0.34-0.59
			c2.48-4.34,4.38-8.86,5.65-13.45h4.44c6.22,0,11.28-5.06,11.28-11.28V96.2C271.34,89.98,266.28,84.92,260.06,84.92z"/>
	</g>
</g>
<rect x="25" y="25" class="st1" width="250" height="250"/>
</svg>
