<?xml version="1.0" encoding="utf-8"?>
<!-- Generator: Adobe Illustrator 23.0.0, SVG Export Plug-In . SVG Version: 6.00 Build 0)  -->
<svg version="1.1" id="Capa_1" xmlns="http://www.w3.org/2000/svg" xmlns:xlink="http://www.w3.org/1999/xlink" x="0px" y="0px"
	 viewBox="0 0 300 300" style="enable-background:new 0 0 300 300;" xml:space="preserve">
<style type="text/css">
	.st0{fill:none;}
	.st1{fill:#454D66;}
</style>
<rect x="12.5" y="12.5" class="st0" width="275" height="275"/>
<g>
	<path class="st1" d="M80.57,235.1c-8.31,0-15.1,6.79-15.1,15.1c0,8.36,6.79,15.1,15.1,15.1c8.36,0,15.16-6.74,15.16-15.1
		C95.74,241.89,88.94,235.1,80.57,235.1z"/>
	<path class="st1" d="M171.31,235.1c-8.36,0-15.16,6.79-15.16,15.1c0,8.36,6.8,15.1,15.16,15.1c8.31,0,15.1-6.74,15.1-15.1
		C186.41,241.89,179.62,235.1,171.31,235.1z"/>
	<path class="st1" d="M182.68,207.14c-2.5-0.65-4.95-1.4-7.37-2.25H74.04l-1.68-10.09h82.48c-8.43-5.51-15.93-12.33-22.2-20.18
		h-26.88v-20.11h14.54c-1.48-3.27-2.77-6.64-3.87-10.09h-10.66v-20.18h6.57c-0.26-2.86-0.4-5.75-0.4-8.68
		c0-3.87,0.24-7.69,0.69-11.44H57.21l-1.91-11.76c-0.84-4.87-5.03-8.41-9.94-8.41H22.67c-5.57,0-10.09,4.52-10.09,10.09
		c0,5.55,4.52,10.09,10.09,10.09h14.12l18.74,112.46c0.1,0.44,0.3,0.84,0.44,1.23c0.2,0.54,0.3,1.03,0.54,1.52
		c0.35,0.69,0.79,1.23,1.23,1.83c0.29,0.39,0.59,0.78,0.93,1.12c0.59,0.54,1.28,0.94,1.96,1.34c0.4,0.19,0.69,0.49,1.13,0.64
		c1.18,0.44,2.42,0.73,3.69,0.73h110.85c5.55,0,10.09-4.47,10.09-10.09C186.41,211.77,184.95,208.98,182.68,207.14z M64,144.71
		l-3.4-20.47h35.14v20.18H65.47C64.93,144.42,64.49,144.58,64,144.71z M65.62,154.51h30.12v20.11H68.97L65.62,154.51z"/>
	<path class="st1" d="M206.55,34.7c-44.59,0-80.87,36.28-80.87,80.87c0,44.59,36.28,80.87,80.87,80.87
		c44.59,0,80.87-36.28,80.87-80.87C287.42,70.98,251.14,34.7,206.55,34.7z M206.55,175.19c-32.88,0-59.63-26.75-59.63-59.63
		c0-32.88,26.75-59.63,59.63-59.63c32.88,0,59.63,26.75,59.63,59.63C266.17,148.45,239.43,175.19,206.55,175.19z"/>
	<path class="st1" d="M243,84.76c-4.58-3.67-11.26-2.93-14.93,1.65l-28.98,36.18l-15.18-13.91c-4.32-3.96-11.04-3.67-15.01,0.66
		c-3.96,4.32-3.67,11.04,0.66,15.01l31.92,29.24l43.18-53.89C248.32,95.11,247.58,88.43,243,84.76z"/>
</g>
</svg>
