<?xml version="1.0" encoding="utf-8"?>
<!-- Generator: Adobe Illustrator 23.0.0, SVG Export Plug-In . SVG Version: 6.00 Build 0)  -->
<svg version="1.1" id="Capa_1" xmlns="http://www.w3.org/2000/svg" xmlns:xlink="http://www.w3.org/1999/xlink" x="0px" y="0px"
	 viewBox="0 0 300 300" style="enable-background:new 0 0 300 300;" xml:space="preserve">
<style type="text/css">
	.st0{fill:#454D66;}
	.st1{fill:none;}
</style>
<g>
	<path class="st0" d="M92.18,220.72c-9.72,0-17.66,7.94-17.66,17.66c0,9.78,7.94,17.66,17.66,17.66c6.68,0,12.5-3.68,15.53-9.13
		c-1.07-2.63-1.67-5.51-1.67-8.53c0-3.01,0.6-5.88,1.67-8.51C104.69,224.43,98.87,220.72,92.18,220.72z"/>
	<path class="st0" d="M198.31,220.72c-9.78,0-17.74,7.94-17.74,17.66c0,9.78,7.95,17.66,17.74,17.66c6.64,0,12.44-3.68,15.46-9.13
		c-1.08-2.63-1.67-5.51-1.67-8.54c0-3.01,0.6-5.88,1.68-8.51C210.75,224.43,204.95,220.72,198.31,220.72z"/>
	<path class="st0" d="M100.55,208.92c-0.27-0.57-0.39-1.13-0.62-1.76c-0.16-0.46-0.4-0.93-0.52-1.44l-3.39-20.32H84.54l-1.96-11.8
		h11.48L90.12,150H78.62l-3.92-23.53H86.2l-1.97-11.8h-9.71c-0.63,0-1.15,0.18-1.72,0.34l-3.98-23.94H80.3l-2.81-16.89l-14.44,0
		c-8.54,0-15.48-9.13-15.48-17.66c0-5,2.39-9.44,6.07-12.27c-0.86-0.2-1.74-0.31-2.65-0.31H24.47c-6.51,0-11.8,5.29-11.8,11.8
		c0,6.5,5.29,11.8,11.8,11.8h16.51L62.9,199.08c0.12,0.52,0.35,0.99,0.52,1.44c0.24,0.63,0.35,1.21,0.63,1.78
		c0.41,0.81,0.93,1.44,1.44,2.14c0.34,0.46,0.69,0.91,1.09,1.31c0.69,0.63,1.5,1.1,2.3,1.56c0.47,0.22,0.81,0.57,1.33,0.75
		c1.38,0.52,2.83,0.85,4.32,0.85H100.55z"/>
	<path class="st0" d="M133.36,220.72c-9.72,0-17.66,7.94-17.66,17.66c0,9.78,7.94,17.66,17.66,17.66c9.78,0,17.74-7.88,17.74-17.66
		C151.09,228.66,143.14,220.72,133.36,220.72z"/>
	<path class="st0" d="M239.48,220.72c-9.78,0-17.74,7.94-17.74,17.66c0,9.78,7.95,17.66,17.74,17.66c9.72,0,17.66-7.88,17.66-17.66
		C257.14,228.66,249.2,220.72,239.48,220.72z"/>
	<path class="st0" d="M284.43,71.57c-2.24-2.59-5.46-4.02-8.85-4.02h-47.81H115.08h-2.41l-2.24-13.76
		c-0.99-5.7-5.88-9.84-11.62-9.84H72.28c-6.51,0-11.8,5.29-11.8,11.8c0,6.5,5.29,11.8,11.8,11.8h16.51l21.92,131.53
		c0.12,0.52,0.35,0.99,0.52,1.44c0.24,0.63,0.35,1.21,0.63,1.78c0.41,0.81,0.93,1.44,1.44,2.14c0.34,0.46,0.69,0.91,1.09,1.31
		c0.69,0.63,1.5,1.1,2.3,1.56c0.47,0.22,0.81,0.57,1.33,0.75c1.38,0.52,2.83,0.85,4.32,0.85h129.65c6.5,0,11.8-5.23,11.8-11.8
		c0-6.5-5.3-11.73-11.8-11.73h-47.81h-71.82l-1.96-11.8h133.39c5.86,0,10.81-4.32,11.68-10.13l11.74-82.51
		C287.72,77.55,286.67,74.16,284.43,71.57z M157.73,150h-31.3l-3.92-23.53h35.22V150z M157.73,114.67h-35.4
		c-0.63,0-1.15,0.18-1.72,0.34l-3.98-23.94h41.1V114.67z M204.86,150h-35.4v-23.53h35.4V150z M204.86,114.67h-35.4v-23.6h35.4
		V114.67z M253.53,150h-36.87v-23.53h40.27L253.53,150z M258.6,114.67h-41.94v-23.6h45.28L258.6,114.67z"/>
</g>
<rect x="12.5" y="12.5" class="st1" width="275" height="275"/>
</svg>
